<svg xmlns="http://www.w3.org/2000/svg" xmlns:xlink="http://www.w3.org/1999/xlink" xmlns:lucid="lucid" width="2444" height="2537"><g transform="translate(-618 1485)" lucid:page-tab-id="0_0"><path d="M640-214a6 6 0 0 1 6-6h308a6 6 0 0 1 6 6V14a6 6 0 0 1-6 6H646a6 6 0 0 1-6-6z" stroke="#000" stroke-width="4" fill="#fff3d9"/><use xlink:href="#a" transform="matrix(1,0,0,1,660,-220) translate(57.2135416666667 136.92491319444443)"/><path d="M640 526a6 6 0 0 1 6-6h308a6 6 0 0 1 6 6v228a6 6 0 0 1-6 6H646a6 6 0 0 1-6-6z" stroke="#000" stroke-width="4" fill="#fff3d9"/><use xlink:href="#b" transform="matrix(1,0,0,1,660,520) translate(56.222873263888914 136.92491319444443)"/><path d="M640-834a6 6 0 0 1 6-6h308a6 6 0 0 1 6 6v228a6 6 0 0 1-6 6H646a6 6 0 0 1-6-6z" stroke="#000" stroke-width="4" fill="#fff3d9"/><use xlink:href="#c" transform="matrix(1,0,0,1,660,-840) translate(52.0692274305556 136.92491319444443)"/><path d="M1500-590c0 49.7-40.3 90-90 90s-90-40.3-90-90 40.3-90 90-90 90 40.3 90 90z" stroke="#000" stroke-width="4" fill="#c3f7c8"/><use xlink:href="#d" transform="matrix(1,0,0,1,1340,-680) translate(16.1328125 103.84765625)"/><path d="M1500-850c0 49.7-40.3 90-90 90s-90-40.3-90-90 40.3-90 90-90 90 40.3 90 90z" stroke="#000" stroke-width="4" fill="#c3f7c8"/><use xlink:href="#e" transform="matrix(1,0,0,1,1340,-940) translate(2.451171875 103.84765625)"/><path d="M1540-1314a6 6 0 0 1 6-6h328a6 6 0 0 1 6 6v148a6 6 0 0 1-6 6h-328a6 6 0 0 1-6-6z" fill="#cfe4ff"/><path d="M1880-1320h-334a6 6 0 0 0-6 6v148a6 6 0 0 0 6 6h334" stroke="#000" stroke-width="4" fill="none"/><use xlink:href="#f" transform="matrix(1,0,0,1,1608,-1288) translate(58.9140625 38.56640625)"/><use xlink:href="#g" transform="matrix(1,0,0,1,1608,-1288) translate(-14.240234375 85.12890625)"/><path d="M964-720h170a6 6 0 0 0 6-6v-118a6 6 0 0 1 6-6h149.26" stroke="#000" stroke-width="4" fill="none"/><path d="M964.05-718.02H962V-722h2.05z" stroke="#000" stroke-width=".05"/><path d="M1311.53-850l-14.27 4.63v-9.26z" stroke="#000" stroke-width="4"/><path d="M1410-944v-290a6 6 0 0 1 6-6h99.26" stroke="#000" stroke-width="4" fill="none"/><path d="M1411.97-941.95l-1.95-.05h-1.47l-.52.03v-2.08h3.94z" stroke="#000" stroke-width=".05"/><path d="M1531.53-1240l-14.27 4.63v-9.27z" stroke="#000" stroke-width="4"/><path d="M964-720h170a6 6 0 0 1 6 6v118a6 6 0 0 0 6 6h149.26" stroke="#000" stroke-width="4" fill="none"/><path d="M964.05-718.02H962V-722h2.05z" stroke="#000" stroke-width=".05"/><path d="M1311.53-590l-14.27 4.63v-9.26z" stroke="#000" stroke-width="4"/><path d="M1500-100c0 49.7-40.3 90-90 90s-90-40.3-90-90 40.3-90 90-90 90 40.3 90 90z" stroke="#000" stroke-width="4" fill="#c3f7c8"/><use xlink:href="#h" transform="matrix(1,0,0,1,1340,-190) translate(31.748046875 80.56640625)"/><use xlink:href="#i" transform="matrix(1,0,0,1,1340,-190) translate(6.46484375 127.12890625)"/><path d="M1060 186a6 6 0 0 1 6-6h288a6 6 0 0 1 6 6v148a6 6 0 0 1-6 6h-288a6 6 0 0 1-6-6z" fill="#cfe4ff"/><path d="M1360 180h-294a6 6 0 0 0-6 6v148a6 6 0 0 0 6 6h294" stroke="#000" stroke-width="4" fill="none"/><use xlink:href="#j" transform="matrix(1,0,0,1,1120,212) translate(26.46484375 38.56640625)"/><use xlink:href="#g" transform="matrix(1,0,0,1,1120,212) translate(-26.240234375 85.12890625)"/><path d="M964-100h331.26" stroke="#000" stroke-width="4" fill="none"/><path d="M964.05-98.03H962v-3.94h2.05z" stroke="#000" stroke-width=".05"/><path d="M1311.53-100l-14.27 4.64v-9.28z" stroke="#000" stroke-width="4"/><path d="M1410-6v85a6 6 0 0 1-6 6h-211.94a6 6 0 0 0-6 6v64.26" stroke="#000" stroke-width="4" fill="none"/><path d="M1409.98-8h1.47l.52-.03v2.08h-3.94v-2.1z" stroke="#000" stroke-width=".05"/><path d="M1186.06 171.53l-4.64-14.27h9.27z" stroke="#000" stroke-width="4"/><path d="M1420 640c0 49.7-40.3 90-90 90s-90-40.3-90-90 40.3-90 90-90 90 40.3 90 90z" stroke="#000" stroke-width="4" fill="#c3f7c8"/><use xlink:href="#d" transform="matrix(1,0,0,1,1260,550) translate(16.1328125 103.84765625)"/><path d="M964 640h251.26" stroke="#000" stroke-width="4" fill="none"/><path d="M964.05 641.98H962V638h2.05z" stroke="#000" stroke-width=".05"/><path d="M1231.53 640l-14.27 4.63v-9.26z" stroke="#000" stroke-width="4"/><path d="M1209.78 344v95a6 6 0 0 0 6 6H1324a6 6 0 0 1 6 6v74.26" stroke="#000" stroke-width="4" fill="none"/><path d="M1211.75 342v2.05h-3.95V342z" stroke="#000" stroke-width=".05"/><path d="M1330 541.53l-4.63-14.27h9.27z" stroke="#000" stroke-width="4"/><path d="M1840-390c0 55.23-44.77 100-100 100s-100-44.77-100-100 44.77-100 100-100 100 44.77 100 100z" stroke="#000" stroke-width="4" fill="#c3f7c8"/><use xlink:href="#k" transform="matrix(1,0,0,1,1660,-490) translate(4.55078125 90.56640625)"/><use xlink:href="#i" transform="matrix(1,0,0,1,1660,-490) translate(16.46484375 137.12890625)"/><path d="M1860 30c0 49.7-40.3 90-90 90s-90-40.3-90-90 40.3-90 90-90 90 40.3 90 90z" stroke="#000" stroke-width="4" fill="#c3f7c8"/><use xlink:href="#l" transform="matrix(1,0,0,1,1700,-60) translate(-5.44921875 80.56640625)"/><use xlink:href="#m" transform="matrix(1,0,0,1,1700,-60) translate(3.369140625 127.12890625)"/><path d="M964-100h170a6 6 0 0 0 6-6v-278a6 6 0 0 1 6-6h469.26" stroke="#000" stroke-width="4" fill="none"/><path d="M964.05-98.03H962v-3.94h2.05z" stroke="#000" stroke-width=".05"/><path d="M1631.53-390l-14.27 4.63v-9.26z" stroke="#000" stroke-width="4"/><path d="M964-100h170a6 6 0 0 1 6 6V24a6 6 0 0 0 6 6h509.26" stroke="#000" stroke-width="4" fill="none"/><path d="M964.05-98.03H962v-3.94h2.05z" stroke="#000" stroke-width=".05"/><path d="M1671.53 30l-14.27 4.63v-9.27z" stroke="#000" stroke-width="4"/><path d="M2220-235c0 69.04-55.96 125-125 125-69.04 0-125-55.96-125-125 0-69.04 55.96-125 125-125 69.04 0 125 55.96 125 125z" stroke="#000" stroke-width="4" fill="#c3f7c8"/><use xlink:href="#k" transform="matrix(1,0,0,1,1990,-360) translate(29.55078125 115.56640625)"/><use xlink:href="#n" transform="matrix(1,0,0,1,1990,-360) translate(-3.876953125 162.12890625)"/><path d="M964-100h239.8a6 6 0 0 0 6-6v-123a6 6 0 0 1 6-6h729.46" stroke="#000" stroke-width="4" fill="none"/><path d="M964.05-98.03H962v-3.94h2.05z" stroke="#000" stroke-width=".05"/><path d="M1961.53-235l-14.27 4.63v-9.26z" stroke="#000" stroke-width="4"/><path d="M2324.92-474a6 6 0 0 1 6-6h298.16a6 6 0 0 1 6 6v148a6 6 0 0 1-6 6h-298.16a6 6 0 0 1-6-6z" fill="#cfe4ff"/><path d="M2635.08-480h-304.16a6 6 0 0 0-6 6v148a6 6 0 0 0 6 6h304.16" stroke="#000" stroke-width="4" fill="none"/><use xlink:href="#o" transform="matrix(1,0,0,1,2386.9514130597995,-448) translate(-15.376953125 38.56640625)"/><use xlink:href="#g" transform="matrix(1,0,0,1,2386.9514130597995,-448) translate(-22.740234375 85.12890625)"/><path d="M2320.92-400H2101a6 6 0 0 0-6 6v9.26" stroke="#000" stroke-width="4" fill="none"/><path d="M2322.92-398.02h-2.05v-3.96h2.05z" stroke="#000" stroke-width=".05"/><path d="M2095-368.47l-4.64-14.27h9.28z" stroke="#000" stroke-width="4"/><path d="M2095-364v-30a6 6 0 0 1 6-6h199.18" stroke="#000" stroke-width="4" fill="none"/><path d="M2096.97-361.96L2095-362l-1.97.02v-2.07h3.94z" stroke="#000" stroke-width=".05"/><path d="M2316.45-400l-14.27 4.63v-9.26z" stroke="#000" stroke-width="4"/><path d="M2140-990c0 49.7-40.3 90-90 90s-90-40.3-90-90 40.3-90 90-90 90 40.3 90 90z" stroke="#000" stroke-width="4" fill="#c3f7c8"/><use xlink:href="#p" transform="matrix(1,0,0,1,1980,-1080) translate(6.66015625 103.84765625)"/><path d="M1709.8-1156v160a6 6 0 0 0 6 6h219.46" stroke="#000" stroke-width="4" fill="none"/><path d="M1711.76-1158v2.05h-3.95v-2.05z" stroke="#000" stroke-width=".05"/><path d="M1951.53-990l-14.27 4.63v-9.26z" stroke="#000" stroke-width="4"/><path d="M1536-1240h-32a6 6 0 0 0-6 6v297.25a6 6 0 0 0 6 6h90a6 6 0 0 1 6 6V-726a6 6 0 0 1-6 6h-178a6 6 0 0 0-6 6v9.26" stroke="#000" stroke-width="4" fill="none"/><path d="M1538-1238.03h-2.05v-3.94h2.05z" stroke="#000" stroke-width=".05"/><path d="M1410-688.47l-4.63-14.27h9.27z" stroke="#000" stroke-width="4"/><path d="M1956-990h-240a6 6 0 0 1-6-6v-139.26" stroke="#000" stroke-width="4" fill="none"/><path d="M1958-990.02v1.47l.03.52h-2.08v-3.95h2.1z" stroke="#000" stroke-width=".05"/><path d="M1710-1151.53l4.63 14.27h-9.27z" stroke="#000" stroke-width="4"/><path d="M2599.8-980c0 66.27-53.72 120-120 120-66.27 0-120-53.73-120-120 0-66.27 53.73-120 120-120 66.28 0 120 53.73 120 120z" stroke="#000" stroke-width="4" fill="#c3f7c8"/><use xlink:href="#q" transform="matrix(1,0,0,1,2379.8044119538827,-1100) translate(-8.876953125 133.84765625)"/><path d="M2220-590c0 74.56-60.44 135-135 135s-135-60.44-135-135 60.44-135 135-135 135 60.44 135 135z" stroke="#000" stroke-width="4" fill="#e3fae3"/><use xlink:href="#r" transform="matrix(1,0,0,1,1970,-725) translate(38.291015625000014 102.28515625000001)"/><use xlink:href="#s" transform="matrix(1,0,0,1,1970,-725) translate(9.072265625000028 148.84765625)"/><use xlink:href="#t" transform="matrix(1,0,0,1,1970,-725) translate(52.265625000000014 195.41015625)"/><path d="M2840-670c0 49.7-40.3 90-90 90s-90-40.3-90-90 40.3-90 90-90 90 40.3 90 90z" stroke="#000" stroke-width="4" fill="#c3f7c8"/><use xlink:href="#u" transform="matrix(1,0,0,1,2680,-760) translate(-2.55859375 103.84765625)"/><path d="M1504-590h421.26" stroke="#000" stroke-width="4" fill="none"/><path d="M1504.05-588.02h-2.1l.05-1.96v-1.47l-.03-.52h2.08z" stroke="#000" stroke-width=".05"/><path d="M1941.53-590l-14.27 4.63v-9.26z" stroke="#000" stroke-width="4"/><path d="M1504-590h220a6 6 0 0 0 6-6v-388a6 6 0 0 1 6-6h199.26" stroke="#000" stroke-width="4" fill="none"/><path d="M1504.05-588.02h-2.1l.05-1.96v-1.47l-.03-.52h2.08z" stroke="#000" stroke-width=".05"/><path d="M1951.53-990l-14.27 4.63v-9.26z" stroke="#000" stroke-width="4"/><path d="M1504-590h220a6 6 0 0 0 6-6v-248a6 6 0 0 1 6-6h577.5a6 6 0 0 0 6-6v-118a6 6 0 0 1 6-6h9.57" stroke="#000" stroke-width="4" fill="none"/><path d="M1504.05-588.02h-2.1l.05-1.96v-1.47l-.03-.52h2.08z" stroke="#000" stroke-width=".05"/><path d="M2351.33-980l-14.26 4.63v-9.26z" stroke="#000" stroke-width="4"/><path d="M1504-590h220a6 6 0 0 0 6-6v-208a6 6 0 0 1 6-6h868a6 6 0 0 1 6 6v128a6 6 0 0 0 6 6h19.26" stroke="#000" stroke-width="4" fill="none"/><path d="M1504.05-588.02h-2.1l.05-1.96v-1.47l-.03-.52h2.08z" stroke="#000" stroke-width=".05"/><path d="M2651.53-670l-14.27 4.63v-9.26z" stroke="#000" stroke-width="4"/><path d="M2479.8-484v-351.26" stroke="#000" stroke-width="4" fill="none"/><path d="M2481.78-482h-3.95v-2.05h3.95z" stroke="#000" stroke-width=".05"/><path d="M2479.8-851.53l4.64 14.27h-9.27z" stroke="#000" stroke-width="4"/><path d="M1362 260h1382a6 6 0 0 0 6-6v-809.26" stroke="#000" stroke-width="4" fill="none"/><path d="M1362.05 261.98H1360v-3.96h2.05z" stroke="#000" stroke-width=".05"/><path d="M2750-571.53l4.64 14.27h-9.28z" stroke="#000" stroke-width="4"/><path d="M2600-1290c0 71.8-58.2 130-130 130s-130-58.2-130-130 58.2-130 130-130 130 58.2 130 130z" stroke="#000" stroke-width="4" fill="#c3f7c8"/><use xlink:href="#v" transform="matrix(1,0,0,1,2360,-1420) translate(-7.05078125 143.84765625)"/><path d="M2050-1084v-200a6 6 0 0 1 6-6h259.26" stroke="#000" stroke-width="4" fill="none"/><path d="M2051.97-1081.95l-1.95-.05h-1.47l-.53.03v-2.08h3.95z" stroke="#000" stroke-width=".05"/><path d="M2331.53-1290l-14.27 4.63v-9.27z" stroke="#000" stroke-width="4"/><path d="M1840 640c0 49.7-40.3 90-90 90s-90-40.3-90-90 40.3-90 90-90 90 40.3 90 90z" stroke="#000" stroke-width="4" fill="#c3f7c8"/><use xlink:href="#p" transform="matrix(1,0,0,1,1680,550) translate(6.66015625 103.84765625)"/><path d="M1424 640h211.26" stroke="#000" stroke-width="4" fill="none"/><path d="M1424.05 641.98h-2.1l.05-1.96v-1.47l-.03-.52h2.08z" stroke="#000" stroke-width=".05"/><path d="M1651.53 640l-14.27 4.63v-9.26z" stroke="#000" stroke-width="4"/><path d="M1209.8 344v95a6 6 0 0 0 6 6H1744a6 6 0 0 1 6 6v74.26" stroke="#000" stroke-width="4" fill="none"/><path d="M1211.77 342v2.05h-3.95V342z" stroke="#000" stroke-width=".05"/><path d="M1750 541.53l-4.63-14.27h9.27z" stroke="#000" stroke-width="4"/><path d="M2460 520c0 49.7-40.3 90-90 90s-90-40.3-90-90 40.3-90 90-90 90 40.3 90 90z" stroke="#000" stroke-width="4" fill="#c3f7c8"/><use xlink:href="#w" transform="matrix(1,0,0,1,2300,430) translate(3.369140625 103.84765625)"/><path d="M3040 640c0 74.56-62.68 135-140 135s-140-60.44-140-135 62.68-135 140-135 140 60.44 140 135z" stroke="#000" stroke-width="4" fill="#c3f7c8"/><use xlink:href="#x" transform="matrix(1,0,0,1,2780,505) translate(40.1171875 102.28515625)"/><use xlink:href="#y" transform="matrix(1,0,0,1,2780,505) translate(127.01171875 102.28515625)"/><use xlink:href="#z" transform="matrix(1,0,0,1,2780,505) translate(72.16796875 148.84765625)"/><use xlink:href="#A" transform="matrix(1,0,0,1,2780,505) translate(2.94921875 195.41015625)"/><path d="M1424 640h32a6 6 0 0 0 6-6V394a6 6 0 0 1 6-6h896a6 6 0 0 1 6 6v11.26" stroke="#000" stroke-width="4" fill="none"/><path d="M1424.05 641.98h-2.1l.05-1.96v-1.47l-.03-.52h2.08z" stroke="#000" stroke-width=".05"/><path d="M2370 421.53l-4.64-14.27h9.28z" stroke="#000" stroke-width="4"/><path d="M1710-1324v-150a6 6 0 0 1 6-6h1178a6 6 0 0 1 6 6V254.5a6 6 0 0 1-6 6h-518a6 6 0 0 0-6 6v138.76" stroke="#000" stroke-width="4" fill="none"/><path d="M1711.97-1322h-3.94v-2.05h3.94z" stroke="#000" stroke-width=".05"/><path d="M2370 421.53l-4.64-14.27h9.28z" stroke="#000" stroke-width="4"/><path d="M2464 520h140a6 6 0 0 1 6 6v108a6 6 0 0 0 6 6h119.26" stroke="#000" stroke-width="4" fill="none"/><path d="M2464.05 521.98h-2.1l.05-1.96v-1.47l-.03-.52h2.08z" stroke="#000" stroke-width=".05"/><path d="M2751.53 640l-14.27 4.63v-9.26z" stroke="#000" stroke-width="4"/><path d="M2900 501v-1975a6 6 0 0 0-6-6H1716a6 6 0 0 0-6 6v129.26" stroke="#000" stroke-width="4" fill="none"/><path d="M2901.97 503.04L2900 503l-1.97.02v-2.07h3.94z" stroke="#000" stroke-width=".05"/><path d="M1710-1328.47l-4.63-14.27h9.27z" stroke="#000" stroke-width="4"/><path d="M2160 890c0 77.32-62.68 140-140 140s-140-62.68-140-140 62.68-140 140-140 140 62.68 140 140z" stroke="#000" stroke-width="4" fill="#c3f7c8"/><g><use xlink:href="#B" transform="matrix(1,0,0,1,1900,750) translate(-6.806640625 153.84765625)"/></g><path d="M1330 734v150a6 6 0 0 0 6 6h519.26" stroke="#000" stroke-width="4" fill="none"/><path d="M1329.98 732h1.47l.52-.03v2.08h-3.94v-2.1z" stroke="#000" stroke-width=".05"/><path d="M1871.53 890l-14.27 4.63v-9.26z" stroke="#000" stroke-width="4"/><defs><path fill="#3a414a" d="M866-109c86 4 168 3 168-79 1-32-10-65-18-88l-72-205H446c-28 97-84 180-84 293 0 85 91 82 179 79V0H8v-109c122 10 157-61 189-149l444-1204h281l428 1206c31 88 67 157 192 147V0H866v-109zm37-497c-67-212-140-417-194-643-69 219-146 429-220 643h414" id="C"/><path fill="#3a414a" d="M811-1321c2-107-74-131-182-127v-108h493v1304c-2 111 68 146 178 143V0H903l-57-160h-19C768-53 677 20 512 20 192 20 94-217 94-547s95-575 414-575c154 0 247 67 305 164h14c-9-120-19-232-16-363zM600-133c203 0 211-207 211-418 0-170-13-323-109-393-48-34-143-39-190 0-88 74-102 228-102 395 0 139 15 244 44 313s77 103 146 103" id="D"/><path fill="#3a414a" d="M1169-254c-4 106 37 152 144 145V0H858v-674c-2-147-22-276-164-276-152 0-178 160-178 317v391c-3 102 51 138 154 133V0H41v-109c107 5 164-34 164-141v-612c3-102-52-138-154-133v-103h430l27 146h10c58-113 144-176 313-172 157 3 265 55 310 172h18c58-115 154-175 326-172 240 4 338 149 338 395v475c-4 105 37 152 143 145V0h-455v-674c-3-152-24-276-163-276-145 0-179 143-179 293v403" id="E"/><path fill="#3a414a" d="M350-1282c-103 0-174-45-174-148 0-104 70-147 174-147 103 0 176 44 176 147 0 102-74 148-176 148zM516-242c0 102 66 138 170 133V0H35v-109c104 5 170-31 170-133v-622c0-98-69-130-170-125v-109h481v856" id="F"/><path fill="#3a414a" d="M1169-254c-4 106 37 152 144 145V0H858v-674c-2-147-22-276-164-276-152 0-178 160-178 317v391c-3 102 51 138 154 133V0H41v-109c107 5 164-34 164-141v-606c3-102-52-138-154-133v-109h430l27 146h10c58-113 144-175 313-172 240 5 338 149 338 395v475" id="G"/><g id="a"><use transform="matrix(0.023871527777777766,0,0,0.023871527777777766,0,0)" xlink:href="#C"/><use transform="matrix(0.023871527777777766,0,0,0.023871527777777766,35.83116319444443,0)" xlink:href="#D"/><use transform="matrix(0.023871527777777766,0,0,0.023871527777777766,67.55642361111109,0)" xlink:href="#E"/><use transform="matrix(0.023871527777777766,0,0,0.023871527777777766,115.75303819444441,0)" xlink:href="#F"/><use transform="matrix(0.023871527777777766,0,0,0.023871527777777766,132.96440972222217,0)" xlink:href="#G"/></g><path fill="#3a414a" d="M733-1462c467 5 725 237 725 704 0 360-150 596-410 702C958-19 852 0 733 0H57v-109h86c83 3 106-49 105-133v-987c1-82-26-125-105-125H57v-108h676zm379 704c0-195-36-341-108-436s-177-143-316-143H571v1210c120 2 220 3 300-43 173-99 240-314 241-588" id="H"/><path fill="#3a414a" d="M631-1124c358 0 526 209 528 571 2 373-172 573-534 573C267 20 98-190 96-553c-2-374 172-571 535-571zM527-966c-131 91-126 390-101 605 16 136 58 252 203 252 203 0 213-228 213-444 0-180-15-339-115-413-51-37-148-36-200 0" id="I"/><path fill="#3a414a" d="M952-299c53 28 65 116 26 173C912-25 777 20 604 20 249 20 96-183 96-545c0-366 147-579 502-579 170 0 310 34 380 130 46 63 27 167-26 205-49 36-119 55-213 54-1-102-14-196-69-243-36-31-106-28-144 0-103 75-114 241-114 431 0 139 19 242 57 311s100 103 186 103c149 0 244-68 297-166" id="J"/><path fill="#3a414a" d="M508-324c1 114 29 177 135 179 53 0 102-9 145-19v133C712 3 611 19 498 20 289 22 197-91 197-303v-655H43v-105c87 2 160-42 201-86 42-44 73-112 94-203h170v254h262v140H508v634" id="K"/><path fill="#3a414a" d="M516-246c-4 127 81 146 209 137V0H41v-109c110 5 164-37 164-147v-594c3-104-49-145-154-139v-109h414l41 160h10c46-115 125-184 289-184 142 0 235 41 235 166 0 137-111 200-260 198-1-92-10-170-100-170-129 0-152 146-162 271-11 134 3 274-2 411" id="L"/><g id="b"><use transform="matrix(0.023871527777777766,0,0,0.023871527777777766,0,0)" xlink:href="#H"/><use transform="matrix(0.023871527777777766,0,0,0.023871527777777766,37.50217013888887,0)" xlink:href="#I"/><use transform="matrix(0.023871527777777766,0,0,0.023871527777777766,67.46093749999997,0)" xlink:href="#J"/><use transform="matrix(0.023871527777777766,0,0,0.023871527777777766,93.21831597222219,0)" xlink:href="#K"/><use transform="matrix(0.023871527777777766,0,0,0.023871527777777766,112.02907986111107,0)" xlink:href="#I"/><use transform="matrix(0.023871527777777766,0,0,0.023871527777777766,141.98784722222217,0)" xlink:href="#L"/></g><path fill="#3a414a" d="M686-1462c328 4 559 115 559 434 0 359-281 480-674 469v328c-1 81 30 122 109 122h125V0H57v-109h86c83 3 106-49 105-133v-987c1-82-26-125-105-125H57v-108h629zm215 442c0-195-55-324-250-321h-80v663h50c215 5 280-127 280-342" id="M"/><path fill="#3a414a" d="M526-129c139 0 193-116 193-262v-154c-144 3-272 20-298 142-6 28-11 61-11 98 1 103 24 176 116 176zm193-524c-6-153 30-348-127-346-115 1-136 103-137 221-92 0-160-13-207-31-80-31-88-141-36-202 75-88 224-112 388-113 266-2 430 83 430 348v522c-3 99 29 152 131 145V0H780l-43-141h-18C646-52 578 24 414 20 206 14 92-101 92-313c0-254 188-323 459-334" id="N"/><path fill="#3a414a" d="M682-968c-75-53-166-16-210 62-32 57-53 140-56 249h354c-1-134-12-257-88-311zm4 835c147 0 236-69 289-166 63 29 71 123 31 183C939-17 799 20 627 20 270 20 96-185 96-543c0-359 153-581 508-581 315 0 475 175 479 493v105H412c10 217 60 393 274 393" id="O"/><g id="c"><use transform="matrix(0.023871527777777766,0,0,0.023871527777777766,0,0)" xlink:href="#M"/><use transform="matrix(0.023871527777777766,0,0,0.023871527777777766,30.22135416666665,0)" xlink:href="#N"/><use transform="matrix(0.023871527777777766,0,0,0.023871527777777766,59.034288194444414,0)" xlink:href="#K"/><use transform="matrix(0.023871527777777766,0,0,0.023871527777777766,78.82378472222219,0)" xlink:href="#F"/><use transform="matrix(0.023871527777777766,0,0,0.023871527777777766,96.03515624999996,0)" xlink:href="#O"/><use transform="matrix(0.023871527777777766,0,0,0.023871527777777766,123.94097222222219,0)" xlink:href="#G"/><use transform="matrix(0.023871527777777766,0,0,0.023871527777777766,156.07204861111103,0)" xlink:href="#K"/></g><path fill="#3a414a" d="M674-1376c-119-7-195 23-195 139v1135h404c178-1 180-179 200-338h107L1176 0H78v-86c122 7 194-27 194-147v-996c4-120-72-154-194-147v-86h596v86" id="P"/><path fill="#3a414a" d="M594-1118c338 0 472 222 475 567 2 360-143 571-481 571S115-205 113-551c-2-359 142-567 481-567zm-4 108c-241 0-279 212-279 459 0 249 39 465 281 465s278-216 278-465c0-248-38-459-280-459" id="Q"/><path fill="#3a414a" d="M956-1161c125-12 164 158 62 205-14 6-30 8-49 8 9-84-106-83-156-45 48 62 81 134 80 248-2 265-188 381-475 346-48 26-98 54-99 125-1 68 58 77 127 77h232c215 1 338 97 338 306 0 294-237 379-543 383-249 3-426-81-426-299C47 28 162-41 303-70c-62-29-113-79-113-168 0-105 57-142 134-192-112-50-185-152-185-309 0-249 134-379 385-379 97 0 179 25 234 67 49-50 103-100 198-110zM438-14c-139-3-225 52-225 194 0 158 102 212 264 211 212-1 363-46 371-248C856-58 624-10 438-14zm78-1004c-150 0-184 109-184 273 0 159 39 250 186 253 149 3 184-105 182-256-2-165-33-270-184-270" id="R"/><path fill="#3a414a" d="M434-233c-3 120 73 154 195 147V0H47v-86c118 6 195-21 195-137v-649c2-108-66-143-174-140v-86h366v865zM330-1303c-79 0-117-45-117-127s37-126 117-126c79 0 116 46 116 126 0 81-37 127-116 127" id="S"/><path fill="#3a414a" d="M434-223c-3 108 66 141 174 137V0H57v-86c118 6 185-31 185-147v-639c2-108-66-143-174-140v-86h331l27 166h10c63-113 148-188 320-186 244 3 343 152 344 401v484c-4 110 54 152 164 147V0H907v-707c0-170-55-282-225-280-187 3-248 145-248 332v432" id="T"/><g id="d"><use transform="matrix(0.01953125,0,0,0.01953125,0,0)" xlink:href="#P"/><use transform="matrix(0.01953125,0,0,0.01953125,24.921875,0)" xlink:href="#Q"/><use transform="matrix(0.01953125,0,0,0.01953125,47.6171875,0)" xlink:href="#R"/><use transform="matrix(0.01953125,0,0,0.01953125,69.140625,0)" xlink:href="#S"/><use transform="matrix(0.01953125,0,0,0.01953125,81.93359375,0)" xlink:href="#T"/></g><path fill="#3a414a" d="M1010-391c0 288-209 411-504 411-227 0-400-72-408-288-3-85 58-140 148-138 13 184 83 323 276 326 176 3 296-86 293-258-4-208-164-249-317-319-197-90-377-181-377-455 0-256 189-371 448-371 165 0 292 46 357 143 39 57 33 148-18 186-30 22-68 34-117 34-4-156-72-260-230-260-155 0-250 80-250 233 0 217 160 262 318 332 152 68 291 135 355 283 17 42 26 88 26 141" id="U"/><path fill="#3a414a" d="M1243-418c-7 302-195 436-502 438-327 2-516-134-516-462v-795c3-115-76-146-194-139v-86h596v86c-122-7-195 27-195 147v799c1 222 123 328 342 328 218 0 344-107 344-320v-815c3-115-76-146-194-139v-86h514v86c-122-7-195 27-195 147v811" id="V"/><path fill="#3a414a" d="M946-553c0-230-32-430-254-434-242-4-278 193-278 436s40 440 280 440c221 0 252-212 252-442zm-219-565c321 0 418 237 418 567 0 331-96 571-418 571-163 0-254-75-313-180h-8c7 140 10 280 8 428-2 108 66 142 174 138v86H37v-86c118 6 184-32 184-148V-872c3-116-76-146-194-140v-86h358l21 185h8c57-116 142-205 313-205" id="W"/><g id="e"><use transform="matrix(0.01953125,0,0,0.01953125,0,0)" xlink:href="#U"/><use transform="matrix(0.01953125,0,0,0.01953125,21.7578125,0)" xlink:href="#S"/><use transform="matrix(0.01953125,0,0,0.01953125,34.55078125,0)" xlink:href="#R"/><use transform="matrix(0.01953125,0,0,0.01953125,56.07421875,0)" xlink:href="#T"/><use transform="matrix(0.01953125,0,0,0.01953125,81.875,0)" xlink:href="#V"/><use transform="matrix(0.01953125,0,0,0.01953125,110.546875,0)" xlink:href="#W"/></g><path fill="#3a414a" d="M834-301C834-70 665 20 430 20 250 20 92-26 92-197c0-88 47-135 129-141 1 157 63 257 221 260 156 3 257-97 214-252-47-85-142-109-240-157-153-75-310-122-310-340 0-212 169-289 386-289 130 0 232 36 280 116 31 53 24 126-20 162-26 22-62 33-109 33 0-130-49-217-176-217-120 1-195 48-195 164 0 149 143 163 254 217 154 74 308 124 308 340" id="X"/><path fill="#3a414a" d="M786-645c-4-191-36-363-223-363-76 0-134 30-175 92s-66 152-73 271h471zm123 393c43 21 51 90 17 136C862-29 744 20 588 20c-331 0-471-225-475-561-4-348 134-577 454-577 327 0 443 231 426 583H311c7 242 67 426 305 426 140 0 234-60 293-143" id="Y"/><path fill="#3a414a" d="M434-223C430-95 529-79 659-86V0H68v-86c112 4 174-35 174-147v-639c2-108-66-143-174-140v-86h315l39 203h10c50-120 106-223 281-223 151 0 257 68 211 208-21 64-90 87-181 87-2-101-16-160-108-160-128 0-157 140-183 255-33 148-12 333-18 505" id="Z"/><g id="f"><use transform="matrix(0.01953125,0,0,0.01953125,0,0)" xlink:href="#V"/><use transform="matrix(0.01953125,0,0,0.01953125,27.87109375,0)" xlink:href="#X"/><use transform="matrix(0.01953125,0,0,0.01953125,45.91796875,0)" xlink:href="#Y"/><use transform="matrix(0.01953125,0,0,0.01953125,67.32421875,0)" xlink:href="#Z"/></g><path fill="#3a414a" d="M479-233c-3 120 73 154 195 147V0H78v-86c122 7 194-27 194-147v-996c4-120-72-154-194-147v-86h596v86c-122-7-195 27-195 147v996" id="aa"/><path fill="#3a414a" d="M442-233C435-92 546-78 688-86V0H55v-86c123 7 195-27 195-147v-768H63v-97h187v-102c4-240 124-377 362-377 124 0 225 14 272 85 33 50 8 123-32 144-31 17-72 29-121 29-2-96-37-164-135-164-176 0-152 207-154 385h289v97H442v768" id="ab"/><path fill="#3a414a" d="M434-223c-3 108 66 141 174 137V0H57v-86c121 8 185-28 185-147v-639c3-106-58-144-164-140v-86h321l27 166h10c60-112 141-188 309-186 158 2 252 69 297 186h17c61-114 150-188 321-186 240 3 333 155 334 401v484c-3 110 54 152 164 147V0h-356v-707c0-166-49-282-215-280-172 2-228 132-228 305v449c-3 110 54 152 164 147V0H887v-707c0-166-49-282-215-280-182 3-238 148-238 332v432" id="ac"/><path fill="#3a414a" d="M467-106c176 0 267-107 272-285v-166c-189 6-378 9-423 154-10 31-15 66-15 106 0 123 47 191 166 191zm272-535c5-199 13-375-190-375-142 0-190 83-187 223-106-2-174-27-174-129 0-169 191-191 369-196 250-7 375 104 375 354v531c-3 100 32 153 133 147V0H788l-32-176h-17C664-76 596 23 420 20 213 16 102-97 102-307c0-109 41-186 116-242 100-75 325-89 521-92" id="ad"/><path fill="#3a414a" d="M387-291c-2 124 47 200 156 203 51 1 88-6 131-14v90C626 8 560 18 492 20 278 25 195-83 195-297v-684H39v-82c170-8 224-133 254-287h94v252h268v117H387v690" id="ae"/><g id="g"><use transform="matrix(0.01953125,0,0,0.01953125,0,0)" xlink:href="#aa"/><use transform="matrix(0.01953125,0,0,0.01953125,14.6875,0)" xlink:href="#T"/><use transform="matrix(0.01953125,0,0,0.01953125,40.48828125,0)" xlink:href="#ab"/><use transform="matrix(0.01953125,0,0,0.01953125,54.86328125,0)" xlink:href="#Q"/><use transform="matrix(0.01953125,0,0,0.01953125,77.94921875,0)" xlink:href="#Z"/><use transform="matrix(0.01953125,0,0,0.01953125,96.796875,0)" xlink:href="#ac"/><use transform="matrix(0.01953125,0,0,0.01953125,134.58984375,0)" xlink:href="#ad"/><use transform="matrix(0.01953125,0,0,0.01953125,156.71875,0)" xlink:href="#ae"/><use transform="matrix(0.01953125,0,0,0.01953125,170.80078125,0)" xlink:href="#S"/><use transform="matrix(0.01953125,0,0,0.01953125,183.59375,0)" xlink:href="#Q"/><use transform="matrix(0.01953125,0,0,0.01953125,206.6796875,0)" xlink:href="#T"/></g><path fill="#3a414a" d="M322-226C292-111 376-75 500-86V0H0v-86c136 16 160-66 195-160l454-1216h160l463 1267c24 75 65 118 172 109V0H881v-86c113 10 195-27 165-133-27-93-63-180-94-270H414c-30 88-68 171-92 263zm593-366c-76-225-168-445-229-682-56 246-156 455-233 682h462" id="af"/><path fill="#3a414a" d="M844-1331c2-112-71-145-185-139v-86h377v1331c-2 112 71 145 185 139V0H874l-22-184h-8C786-68 701 20 530 20c-321 0-417-237-417-567 0-331 95-571 417-571 163 0 254 76 314 180h12c-10-128-14-255-12-393zM563-987c-219 0-252 212-252 442 0 145 20 254 59 326s104 108 195 108c242 2 279-192 279-436s-41-440-281-440" id="ag"/><g id="h"><use transform="matrix(0.01953125,0,0,0.01953125,0,0)" xlink:href="#af"/><use transform="matrix(0.01953125,0,0,0.01953125,27.40234375,0)" xlink:href="#ag"/><use transform="matrix(0.01953125,0,0,0.01953125,51.953125,0)" xlink:href="#ag"/></g><path fill="#3a414a" d="M705-1462c450 9 667 274 667 729S1160 0 705 0H78v-86c122 7 194-27 194-147v-1004c3-115-76-146-194-139v-86h627zm440 729c2-374-134-623-486-627H479v1256h178c362-7 486-260 488-629" id="ah"/><path fill="#3a414a" d="M893-256c39 28 47 103 13 150C845-22 730 20 580 20c-332 0-467-220-467-563 0-349 119-575 456-575 140 0 259 39 325 116 44 51 42 161-14 193-31 18-76 29-137 29-1-134-38-239-174-236-232 6-258 224-258 471 0 264 65 427 310 432 127 2 227-62 272-143" id="ai"/><g id="i"><use transform="matrix(0.01953125,0,0,0.01953125,0,0)" xlink:href="#ah"/><use transform="matrix(0.01953125,0,0,0.01953125,29.08203125,0)" xlink:href="#Q"/><use transform="matrix(0.01953125,0,0,0.01953125,52.16796875,0)" xlink:href="#ai"/><use transform="matrix(0.01953125,0,0,0.01953125,71.85546875,0)" xlink:href="#ae"/><use transform="matrix(0.01953125,0,0,0.01953125,85.13671875,0)" xlink:href="#Q"/><use transform="matrix(0.01953125,0,0,0.01953125,108.22265625,0)" xlink:href="#Z"/></g><g id="j"><use transform="matrix(0.01953125,0,0,0.01953125,0,0)" xlink:href="#ah"/><use transform="matrix(0.01953125,0,0,0.01953125,29.08203125,0)" xlink:href="#Q"/><use transform="matrix(0.01953125,0,0,0.01953125,52.16796875,0)" xlink:href="#ai"/><use transform="matrix(0.01953125,0,0,0.01953125,71.85546875,0)" xlink:href="#ae"/><use transform="matrix(0.01953125,0,0,0.01953125,85.13671875,0)" xlink:href="#Q"/><use transform="matrix(0.01953125,0,0,0.01953125,108.22265625,0)" xlink:href="#Z"/></g><path fill="#3a414a" d="M1649-233c-4 120 72 154 194 147V0h-545v-86c102 5 154-32 154-129v-1094L983 0H872L397-1305v1072c-4 108 46 153 154 147V0H78v-86c117 6 194-21 194-137v-1014c3-115-76-146-194-139v-86h467L969-291l420-1171h454v86c-122-7-194 27-194 147v996" id="aj"/><g id="k"><use transform="matrix(0.01953125,0,0,0.01953125,0,0)" xlink:href="#aj"/><use transform="matrix(0.01953125,0,0,0.01953125,37.51953125,0)" xlink:href="#ad"/><use transform="matrix(0.01953125,0,0,0.01953125,60.0390625,0)" xlink:href="#T"/><use transform="matrix(0.01953125,0,0,0.01953125,85.83984375,0)" xlink:href="#ad"/><use transform="matrix(0.01953125,0,0,0.01953125,108.359375,0)" xlink:href="#R"/><use transform="matrix(0.01953125,0,0,0.01953125,129.4921875,0)" xlink:href="#Y"/></g><g id="l"><use transform="matrix(0.01953125,0,0,0.01953125,0,0)" xlink:href="#aj"/><use transform="matrix(0.01953125,0,0,0.01953125,37.51953125,0)" xlink:href="#ad"/><use transform="matrix(0.01953125,0,0,0.01953125,60.0390625,0)" xlink:href="#T"/><use transform="matrix(0.01953125,0,0,0.01953125,85.83984375,0)" xlink:href="#ad"/><use transform="matrix(0.01953125,0,0,0.01953125,108.359375,0)" xlink:href="#R"/><use transform="matrix(0.01953125,0,0,0.01953125,129.4921875,0)" xlink:href="#Y"/></g><path fill="#3a414a" d="M479-223C473-90 582-80 715-86V0H78v-86c122 7 194-27 194-147v-1004c3-115-76-146-194-139v-86h575c309 2 504 125 504 428 0 321-213 462-549 465H479v346zm457-803c0-225-92-342-318-338H479v698h109c246 7 348-114 348-360" id="ak"/><g id="m"><use transform="matrix(0.01953125,0,0,0.01953125,0,0)" xlink:href="#ak"/><use transform="matrix(0.01953125,0,0,0.01953125,23.359375,0)" xlink:href="#ad"/><use transform="matrix(0.01953125,0,0,0.01953125,45.48828125,0)" xlink:href="#ae"/><use transform="matrix(0.01953125,0,0,0.01953125,59.5703125,0)" xlink:href="#S"/><use transform="matrix(0.01953125,0,0,0.01953125,72.36328125,0)" xlink:href="#Y"/><use transform="matrix(0.01953125,0,0,0.01953125,93.76953125,0)" xlink:href="#T"/><use transform="matrix(0.01953125,0,0,0.01953125,119.1796875,0)" xlink:href="#ae"/></g><path fill="#3a414a" d="M727-1118c321 0 418 237 418 567 0 331-96 571-418 571-163 0-254-75-313-180h-13L365 0H37v-86c117 6 184-31 184-147v-1098c2-112-70-144-184-139v-86h377c-1 217 4 437-8 643h8c57-116 142-205 313-205zm219 565c0-230-32-430-254-434-242-4-278 193-278 436s40 440 280 440c221 0 252-212 252-442" id="al"/><path fill="#3a414a" d="M887-864c2-112-62-153-174-148v-86h366v875c-3 108 66 141 174 137V0H928l-27-166h-10C829-49 733 21 559 20c-245-1-338-153-338-401v-491c2-108-66-143-174-140v-86h367v707c-1 168 46 283 215 280 191-4 258-139 258-331v-422" id="am"/><path fill="#3a414a" d="M414-233c-4 120 72 154 194 147V0H27v-86c122 7 194-28 194-147v-1098c3-115-76-146-194-139v-86h387v1323" id="an"/><g id="n"><use transform="matrix(0.01953125,0,0,0.01953125,0,0)" xlink:href="#af"/><use transform="matrix(0.01953125,0,0,0.01953125,28.203125,0)" xlink:href="#ac"/><use transform="matrix(0.01953125,0,0,0.01953125,65.99609375,0)" xlink:href="#al"/><use transform="matrix(0.01953125,0,0,0.01953125,90.546875,0)" xlink:href="#am"/><use transform="matrix(0.01953125,0,0,0.01953125,115.9375,0)" xlink:href="#an"/><use transform="matrix(0.01953125,0,0,0.01953125,128.33984375,0)" xlink:href="#ad"/><use transform="matrix(0.01953125,0,0,0.01953125,150.859375,0)" xlink:href="#T"/><use transform="matrix(0.01953125,0,0,0.01953125,176.66015625,0)" xlink:href="#ai"/><use transform="matrix(0.01953125,0,0,0.01953125,196.34765625,0)" xlink:href="#Y"/></g><g id="o"><use transform="matrix(0.01953125,0,0,0.01953125,0,0)" xlink:href="#af"/><use transform="matrix(0.01953125,0,0,0.01953125,28.203125,0)" xlink:href="#ac"/><use transform="matrix(0.01953125,0,0,0.01953125,65.99609375,0)" xlink:href="#al"/><use transform="matrix(0.01953125,0,0,0.01953125,90.546875,0)" xlink:href="#am"/><use transform="matrix(0.01953125,0,0,0.01953125,115.9375,0)" xlink:href="#an"/><use transform="matrix(0.01953125,0,0,0.01953125,128.33984375,0)" xlink:href="#ad"/><use transform="matrix(0.01953125,0,0,0.01953125,150.859375,0)" xlink:href="#T"/><use transform="matrix(0.01953125,0,0,0.01953125,176.66015625,0)" xlink:href="#ai"/><use transform="matrix(0.01953125,0,0,0.01953125,196.34765625,0)" xlink:href="#Y"/></g><g id="p"><use transform="matrix(0.01953125,0,0,0.01953125,0,0)" xlink:href="#ak"/><use transform="matrix(0.01953125,0,0,0.01953125,24.16015625,0)" xlink:href="#Z"/><use transform="matrix(0.01953125,0,0,0.01953125,42.6171875,0)" xlink:href="#Q"/><use transform="matrix(0.01953125,0,0,0.01953125,65.3125,0)" xlink:href="#ab"/><use transform="matrix(0.01953125,0,0,0.01953125,80.078125,0)" xlink:href="#S"/><use transform="matrix(0.01953125,0,0,0.01953125,92.87109375,0)" xlink:href="#an"/><use transform="matrix(0.01953125,0,0,0.01953125,105.2734375,0)" xlink:href="#Y"/></g><g id="q"><use transform="matrix(0.01953125,0,0,0.01953125,0,0)" xlink:href="#af"/><use transform="matrix(0.01953125,0,0,0.01953125,28.203125,0)" xlink:href="#ac"/><use transform="matrix(0.01953125,0,0,0.01953125,65.99609375,0)" xlink:href="#al"/><use transform="matrix(0.01953125,0,0,0.01953125,90.546875,0)" xlink:href="#am"/><use transform="matrix(0.01953125,0,0,0.01953125,115.9375,0)" xlink:href="#an"/><use transform="matrix(0.01953125,0,0,0.01953125,128.33984375,0)" xlink:href="#ad"/><use transform="matrix(0.01953125,0,0,0.01953125,150.859375,0)" xlink:href="#T"/><use transform="matrix(0.01953125,0,0,0.01953125,176.66015625,0)" xlink:href="#ai"/><use transform="matrix(0.01953125,0,0,0.01953125,196.34765625,0)" xlink:href="#Y"/></g><path fill="#3a414a" d="M918-340C918-83 735 20 473 20 291 20 148-13 84-124c-28-48-33-130-4-176 31-52 94-75 172-75 4 159 67 268 221 275 134 7 248-76 191-200-56-121-266-138-386-206C171-566 82-637 82-797c0-243 192-325 440-325 157 0 279 31 339 121 38 57 21 139-29 174-33 23-85 36-160 36 1-128-56-215-180-215-113 0-209 80-154 186 62 119 269 132 394 204 99 57 186 127 186 276" id="ao"/><g id="r"><use transform="matrix(0.019531249999999993,0,0,0.019531249999999993,0,0)" xlink:href="#H"/><use transform="matrix(0.019531249999999993,0,0,0.019531249999999993,30.68359374999999,0)" xlink:href="#F"/><use transform="matrix(0.019531249999999993,0,0,0.019531249999999993,44.765624999999986,0)" xlink:href="#ao"/><use transform="matrix(0.019531249999999993,0,0,0.019531249999999993,64.27734374999997,0)" xlink:href="#O"/><use transform="matrix(0.019531249999999993,0,0,0.019531249999999993,87.10937499999997,0)" xlink:href="#N"/><use transform="matrix(0.019531249999999993,0,0,0.019531249999999993,111.07421874999997,0)" xlink:href="#ao"/><use transform="matrix(0.019531249999999993,0,0,0.019531249999999993,130.58593749999997,0)" xlink:href="#O"/></g><g id="s"><use transform="matrix(0.019531249999999993,0,0,0.019531249999999993,0,0)" xlink:href="#M"/><use transform="matrix(0.019531249999999993,0,0,0.019531249999999993,25.52734374999999,0)" xlink:href="#L"/><use transform="matrix(0.019531249999999993,0,0,0.019531249999999993,46.445312499999986,0)" xlink:href="#O"/><use transform="matrix(0.019531249999999993,0,0,0.019531249999999993,69.27734374999997,0)" xlink:href="#D"/><use transform="matrix(0.019531249999999993,0,0,0.019531249999999993,95.23437499999997,0)" xlink:href="#F"/><use transform="matrix(0.019531249999999993,0,0,0.019531249999999993,109.31640624999996,0)" xlink:href="#J"/><use transform="matrix(0.019531249999999993,0,0,0.019531249999999993,130.39062499999994,0)" xlink:href="#K"/><use transform="matrix(0.019531249999999993,0,0,0.019531249999999993,146.58203124999994,0)" xlink:href="#F"/><use transform="matrix(0.019531249999999993,0,0,0.019531249999999993,160.66406249999994,0)" xlink:href="#I"/><use transform="matrix(0.019531249999999993,0,0,0.019531249999999993,185.17578124999994,0)" xlink:href="#G"/></g><path fill="#3a414a" d="M1702-242c-1 84 22 133 104 133h86V0h-655v-109c97 6 149-18 149-114v-1037L973 0H834L401-1260v1018c-4 107 56 139 164 133V0H57v-109h86c79 3 105-42 105-122v-998c1-82-26-125-105-125H57v-108h590l340 989 326-989h579v108h-86c-82-2-105 49-104 133v979" id="ap"/><path fill="#3a414a" d="M516-242c0 102 66 138 170 133V0H35v-109c104 5 170-31 170-133v-1081c0-98-69-130-170-125v-108h481v1314" id="aq"/><g id="t"><use transform="matrix(0.019531249999999993,0,0,0.019531249999999993,0,0)" xlink:href="#ap"/><use transform="matrix(0.019531249999999993,0,0,0.019531249999999993,38.085937499999986,0)" xlink:href="#I"/><use transform="matrix(0.019531249999999993,0,0,0.019531249999999993,62.59765624999998,0)" xlink:href="#D"/><use transform="matrix(0.019531249999999993,0,0,0.019531249999999993,88.55468749999997,0)" xlink:href="#O"/><use transform="matrix(0.019531249999999993,0,0,0.019531249999999993,111.38671874999997,0)" xlink:href="#aq"/></g><g id="u"><use transform="matrix(0.01953125,0,0,0.01953125,0,0)" xlink:href="#ah"/><use transform="matrix(0.01953125,0,0,0.01953125,29.08203125,0)" xlink:href="#Q"/><use transform="matrix(0.01953125,0,0,0.01953125,52.16796875,0)" xlink:href="#ai"/><use transform="matrix(0.01953125,0,0,0.01953125,71.85546875,0)" xlink:href="#ae"/><use transform="matrix(0.01953125,0,0,0.01953125,85.13671875,0)" xlink:href="#Q"/><use transform="matrix(0.01953125,0,0,0.01953125,108.22265625,0)" xlink:href="#Z"/><use transform="matrix(0.01953125,0,0,0.01953125,127.0703125,0)" xlink:href="#X"/></g><g id="v"><use transform="matrix(0.01953125,0,0,0.01953125,0,0)" xlink:href="#ak"/><use transform="matrix(0.01953125,0,0,0.01953125,24.16015625,0)" xlink:href="#Z"/><use transform="matrix(0.01953125,0,0,0.01953125,43.0078125,0)" xlink:href="#Y"/><use transform="matrix(0.01953125,0,0,0.01953125,64.4140625,0)" xlink:href="#X"/><use transform="matrix(0.01953125,0,0,0.01953125,82.4609375,0)" xlink:href="#ai"/><use transform="matrix(0.01953125,0,0,0.01953125,102.1484375,0)" xlink:href="#Z"/><use transform="matrix(0.01953125,0,0,0.01953125,120.99609375,0)" xlink:href="#S"/><use transform="matrix(0.01953125,0,0,0.01953125,133.7890625,0)" xlink:href="#W"/><use transform="matrix(0.01953125,0,0,0.01953125,158.33984375,0)" xlink:href="#ae"/><use transform="matrix(0.01953125,0,0,0.01953125,172.421875,0)" xlink:href="#S"/><use transform="matrix(0.01953125,0,0,0.01953125,185.21484375,0)" xlink:href="#Q"/><use transform="matrix(0.01953125,0,0,0.01953125,208.30078125,0)" xlink:href="#T"/></g><g id="w"><use transform="matrix(0.01953125,0,0,0.01953125,0,0)" xlink:href="#ak"/><use transform="matrix(0.01953125,0,0,0.01953125,23.359375,0)" xlink:href="#ad"/><use transform="matrix(0.01953125,0,0,0.01953125,45.48828125,0)" xlink:href="#ae"/><use transform="matrix(0.01953125,0,0,0.01953125,59.5703125,0)" xlink:href="#S"/><use transform="matrix(0.01953125,0,0,0.01953125,72.36328125,0)" xlink:href="#Y"/><use transform="matrix(0.01953125,0,0,0.01953125,93.76953125,0)" xlink:href="#T"/><use transform="matrix(0.01953125,0,0,0.01953125,119.1796875,0)" xlink:href="#ae"/></g><g id="x"><use transform="matrix(0.01953125,0,0,0.01953125,0,0)" xlink:href="#af"/><use transform="matrix(0.01953125,0,0,0.01953125,27.40234375,0)" xlink:href="#ag"/><use transform="matrix(0.01953125,0,0,0.01953125,51.953125,0)" xlink:href="#ag"/></g><g id="y"><use transform="matrix(0.01953125,0,0,0.01953125,0,0)" xlink:href="#ad"/><use transform="matrix(0.01953125,0,0,0.01953125,22.51953125,0)" xlink:href="#T"/><use transform="matrix(0.01953125,0,0,0.01953125,48.3203125,0)" xlink:href="#ag"/></g><path fill="#3a414a" d="M1047-1188c37-106 8-202-117-188h-47v-86h499v86c-135-16-160 62-194 159L764 0H614L172-1268c-22-75-67-117-172-108v-86h563v86c-110-10-197 24-165 133C500-894 642-571 727-201c78-350 208-663 320-987" id="ar"/><path fill="#3a414a" d="M508-1012c-85 0-151 4-150 86 0 28 11 63 17 88 59 216 125 426 168 658h6c20-100 53-202 84-293l213-619h129c98 304 212 592 293 912h6c46-231 140-457 196-684 26-106-33-156-145-148v-86h438v86c-127-12-151 65-180 160L1319 0h-164L911-721l-37-135L584 0H422L154-903c-24-68-57-114-152-109v-86h506v86" id="as"/><g id="z"><use transform="matrix(0.01953125,0,0,0.01953125,0,0)" xlink:href="#ar"/><use transform="matrix(0.01953125,0,0,0.01953125,26.9921875,0)" xlink:href="#S"/><use transform="matrix(0.01953125,0,0,0.01953125,39.78515625,0)" xlink:href="#Y"/><use transform="matrix(0.01953125,0,0,0.01953125,61.19140625,0)" xlink:href="#as"/></g><g id="A"><use transform="matrix(0.01953125,0,0,0.01953125,0,0)" xlink:href="#ak"/><use transform="matrix(0.01953125,0,0,0.01953125,24.16015625,0)" xlink:href="#Z"/><use transform="matrix(0.01953125,0,0,0.01953125,43.0078125,0)" xlink:href="#Y"/><use transform="matrix(0.01953125,0,0,0.01953125,64.4140625,0)" xlink:href="#X"/><use transform="matrix(0.01953125,0,0,0.01953125,82.4609375,0)" xlink:href="#ai"/><use transform="matrix(0.01953125,0,0,0.01953125,102.1484375,0)" xlink:href="#Z"/><use transform="matrix(0.01953125,0,0,0.01953125,120.99609375,0)" xlink:href="#S"/><use transform="matrix(0.01953125,0,0,0.01953125,133.7890625,0)" xlink:href="#W"/><use transform="matrix(0.01953125,0,0,0.01953125,158.33984375,0)" xlink:href="#ae"/><use transform="matrix(0.01953125,0,0,0.01953125,172.421875,0)" xlink:href="#S"/><use transform="matrix(0.01953125,0,0,0.01953125,185.21484375,0)" xlink:href="#Q"/><use transform="matrix(0.01953125,0,0,0.01953125,208.30078125,0)" xlink:href="#T"/></g><path fill="#3a414a" d="M272-1229c4-120-72-154-194-147v-86h1032l10 358h-106c-7-141-39-256-191-256H479v545h494v100H479v613h395c120 0 178-65 195-168l14-88h107L1176 0H78v-86c117 6 194-21 194-137v-1006" id="at"/><path fill="#3a414a" d="M868-871c27-98-34-147-137-141v-86h426v86c-114-4-130 76-162 160C865-510 751-153 616 182c-65 163-156 280-360 302-50 6-113 8-178 8v-97c285-2 394-182 461-403L160-903c-28-65-56-114-152-109v-86h492v86c-114-14-152 77-113 174 88 217 187 419 248 662h6c62-238 163-461 227-695" id="au"/><g id="B"><use transform="matrix(0.01953125,0,0,0.01953125,0,0)" xlink:href="#at"/><use transform="matrix(0.01953125,0,0,0.01953125,24.921875,0)" xlink:href="#T"/><use transform="matrix(0.01953125,0,0,0.01953125,50.72265625,0)" xlink:href="#ai"/><use transform="matrix(0.01953125,0,0,0.01953125,70.41015625,0)" xlink:href="#au"/><use transform="matrix(0.01953125,0,0,0.01953125,92.6171875,0)" xlink:href="#ai"/><use transform="matrix(0.01953125,0,0,0.01953125,112.3046875,0)" xlink:href="#an"/><use transform="matrix(0.01953125,0,0,0.01953125,124.70703125,0)" xlink:href="#Q"/><use transform="matrix(0.01953125,0,0,0.01953125,147.79296875,0)" xlink:href="#W"/><use transform="matrix(0.01953125,0,0,0.01953125,172.34375,0)" xlink:href="#Y"/><use transform="matrix(0.01953125,0,0,0.01953125,193.75,0)" xlink:href="#ag"/><use transform="matrix(0.01953125,0,0,0.01953125,218.30078125,0)" xlink:href="#S"/><use transform="matrix(0.01953125,0,0,0.01953125,231.09375,0)" xlink:href="#ad"/></g></defs></g></svg>